# xmcd
#
# Track frame offsets:
#	150
#	18732
#	33676
#	54290
#	68905
#	81906
#	97618
#	108001
#	130224
#	150873
#	162857
#
# Disc length: 2472 seconds
#
# Revision: 2
# Processed by: cddbd v1.5.2PL0 Copyright (c) Steve Scherf et al.
# Submitted via: EasyCDDAExtractor 10.0.3.1
#
DISCID=7a09a60b
DTITLE=William Hut - Days to Remember
DYEAR=2006
DGENRE=Country
TTITLE0=Hometown
TTITLE1=Springtime Blues
TTITLE2=By the Seaside
TTITLE3=Days to Remember
TTITLE4=Don't Let Go
TTITLE5=The Log Train
TTITLE6=Daydream Fight
TTITLE7=Half Way Through Silence
TTITLE8=Faded Highway
TTITLE9=Lord Be My Witness
TTITLE10=I'm Dying to See You Again
EXTD=A real masterpiece!
EXTT0=
EXTT1=
EXTT2=
EXTT3=
EXTT4=
EXTT5=
EXTT6=
EXTT7=
EXTT8=
EXTT9=
EXTT10=
PLAYORDER=
